<svg version="1.0" preserveAspectRatio="xMidYMid meet" height="1000" viewBox="0 0 750 749.999995" zoomAndPan="magnify" width="1000" xmlns:xlink="http://www.w3.org/1999/xlink" xmlns="http://www.w3.org/2000/svg"><defs><g></g></defs><rect fill-opacity="1" height="899.999994" y="-74.999999" fill="#ffffff" width="900" x="-75"></rect><rect fill-opacity="1" height="899.999994" y="-74.999999" fill="#efc9a7" width="900" x="-75"></rect><g fill-opacity="1" fill="#ffffff"><g transform="translate(51.196289, 427.124999)"><g><path d="M 74.84375 -18.59375 L 35.546875 -18.59375 L 29.25 0 L 2.40625 0 L 40.5 -105.28125 L 70.1875 -105.28125 L 108.28125 0 L 81.140625 0 Z M 68.25 -38.390625 L 55.1875 -76.9375 L 42.296875 -38.390625 Z M 68.25 -38.390625"></path></g></g></g><g fill-opacity="1" fill="#ffffff"><g transform="translate(161.729044, 427.124999)"><g><path d="M 4.203125 -42 C 4.203125 -50.59375 5.828125 -58.140625 9.078125 -64.640625 C 12.328125 -71.140625 16.75 -76.140625 22.34375 -79.640625 C 27.945312 -83.140625 34.195312 -84.890625 41.09375 -84.890625 C 46.59375 -84.890625 51.617188 -83.738281 56.171875 -81.4375 C 60.722656 -79.132812 64.296875 -76.035156 66.890625 -72.140625 L 66.890625 -110.984375 L 92.546875 -110.984375 L 92.546875 0 L 66.890625 0 L 66.890625 -12 C 64.492188 -8 61.066406 -4.796875 56.609375 -2.390625 C 52.160156 0.00390625 46.988281 1.203125 41.09375 1.203125 C 34.195312 1.203125 27.945312 -0.570312 22.34375 -4.125 C 16.75 -7.675781 12.328125 -12.722656 9.078125 -19.265625 C 5.828125 -25.816406 4.203125 -33.394531 4.203125 -42 Z M 66.890625 -41.84375 C 66.890625 -48.238281 65.113281 -53.285156 61.5625 -56.984375 C 58.019531 -60.691406 53.695312 -62.546875 48.59375 -62.546875 C 43.5 -62.546875 39.175781 -60.71875 35.625 -57.0625 C 32.070312 -53.414062 30.296875 -48.394531 30.296875 -42 C 30.296875 -35.59375 32.070312 -30.515625 35.625 -26.765625 C 39.175781 -23.015625 43.5 -21.140625 48.59375 -21.140625 C 53.695312 -21.140625 58.019531 -22.988281 61.5625 -26.6875 C 65.113281 -30.394531 66.890625 -35.445312 66.890625 -41.84375 Z M 66.890625 -41.84375"></path></g></g></g><g fill-opacity="1" fill="#ffffff"><g transform="translate(263.563146, 427.124999)"><g><path d="M 22.203125 -92.390625 C 17.703125 -92.390625 14.023438 -93.710938 11.171875 -96.359375 C 8.328125 -99.015625 6.90625 -102.289062 6.90625 -106.1875 C 6.90625 -110.1875 8.328125 -113.507812 11.171875 -116.15625 C 14.023438 -118.8125 17.703125 -120.140625 22.203125 -120.140625 C 26.597656 -120.140625 30.21875 -118.8125 33.0625 -116.15625 C 35.914062 -113.507812 37.34375 -110.1875 37.34375 -106.1875 C 37.34375 -102.289062 35.914062 -99.015625 33.0625 -96.359375 C 30.21875 -93.710938 26.597656 -92.390625 22.203125 -92.390625 Z M 34.953125 -83.6875 L 34.953125 0 L 9.296875 0 L 9.296875 -83.6875 Z M 34.953125 -83.6875"></path></g></g></g><g fill-opacity="1" fill="#ffffff"><g transform="translate(307.806232, 427.124999)"><g><path d="M 73.046875 -54 C 79.140625 -52.695312 84.035156 -49.671875 87.734375 -44.921875 C 91.441406 -40.171875 93.296875 -34.742188 93.296875 -28.640625 C 93.296875 -19.847656 90.21875 -12.875 84.0625 -7.71875 C 77.914062 -2.570312 69.34375 0 58.34375 0 L 9.296875 0 L 9.296875 -105.28125 L 56.6875 -105.28125 C 67.394531 -105.28125 75.769531 -102.832031 81.8125 -97.9375 C 87.863281 -93.039062 90.890625 -86.390625 90.890625 -77.984375 C 90.890625 -71.785156 89.265625 -66.632812 86.015625 -62.53125 C 82.765625 -58.4375 78.441406 -55.59375 73.046875 -54 Z M 34.953125 -62.6875 L 51.75 -62.6875 C 55.945312 -62.6875 59.171875 -63.613281 61.421875 -65.46875 C 63.671875 -67.320312 64.796875 -70.046875 64.796875 -73.640625 C 64.796875 -77.242188 63.671875 -79.992188 61.421875 -81.890625 C 59.171875 -83.785156 55.945312 -84.734375 51.75 -84.734375 L 34.953125 -84.734375 Z M 53.84375 -20.703125 C 58.144531 -20.703125 61.46875 -21.675781 63.8125 -23.625 C 66.164062 -25.570312 67.34375 -28.394531 67.34375 -32.09375 C 67.34375 -35.789062 66.117188 -38.691406 63.671875 -40.796875 C 61.222656 -42.898438 57.847656 -43.953125 53.546875 -43.953125 L 34.953125 -43.953125 L 34.953125 -20.703125 Z M 53.84375 -20.703125"></path></g></g></g><g fill-opacity="1" fill="#ffffff"><g transform="translate(406.640814, 427.124999)"><g><path d="M 47.390625 1.203125 C 39.191406 1.203125 31.816406 -0.546875 25.265625 -4.046875 C 18.722656 -7.546875 13.578125 -12.546875 9.828125 -19.046875 C 6.078125 -25.546875 4.203125 -33.144531 4.203125 -41.84375 C 4.203125 -50.445312 6.097656 -58.019531 9.890625 -64.5625 C 13.691406 -71.113281 18.890625 -76.140625 25.484375 -79.640625 C 32.085938 -83.140625 39.488281 -84.890625 47.6875 -84.890625 C 55.894531 -84.890625 63.296875 -83.140625 69.890625 -79.640625 C 76.492188 -76.140625 81.691406 -71.113281 85.484375 -64.5625 C 89.285156 -58.019531 91.1875 -50.445312 91.1875 -41.84375 C 91.1875 -33.25 89.257812 -25.675781 85.40625 -19.125 C 81.5625 -12.570312 76.3125 -7.546875 69.65625 -4.046875 C 63.007812 -0.546875 55.585938 1.203125 47.390625 1.203125 Z M 47.390625 -21 C 52.296875 -21 56.472656 -22.796875 59.921875 -26.390625 C 63.367188 -29.992188 65.09375 -35.144531 65.09375 -41.84375 C 65.09375 -48.539062 63.414062 -53.6875 60.0625 -57.28125 C 56.71875 -60.882812 52.59375 -62.6875 47.6875 -62.6875 C 42.695312 -62.6875 38.550781 -60.910156 35.25 -57.359375 C 31.945312 -53.816406 30.296875 -48.644531 30.296875 -41.84375 C 30.296875 -35.144531 31.921875 -29.992188 35.171875 -26.390625 C 38.421875 -22.796875 42.492188 -21 47.390625 -21 Z M 47.390625 -21"></path></g></g></g><g fill-opacity="1" fill="#ffffff"><g transform="translate(502.175927, 427.124999)"><g><path d="M 4.203125 -42 C 4.203125 -50.59375 5.828125 -58.140625 9.078125 -64.640625 C 12.328125 -71.140625 16.75 -76.140625 22.34375 -79.640625 C 27.945312 -83.140625 34.195312 -84.890625 41.09375 -84.890625 C 46.59375 -84.890625 51.617188 -83.738281 56.171875 -81.4375 C 60.722656 -79.132812 64.296875 -76.035156 66.890625 -72.140625 L 66.890625 -110.984375 L 92.546875 -110.984375 L 92.546875 0 L 66.890625 0 L 66.890625 -12 C 64.492188 -8 61.066406 -4.796875 56.609375 -2.390625 C 52.160156 0.00390625 46.988281 1.203125 41.09375 1.203125 C 34.195312 1.203125 27.945312 -0.570312 22.34375 -4.125 C 16.75 -7.675781 12.328125 -12.722656 9.078125 -19.265625 C 5.828125 -25.816406 4.203125 -33.394531 4.203125 -42 Z M 66.890625 -41.84375 C 66.890625 -48.238281 65.113281 -53.285156 61.5625 -56.984375 C 58.019531 -60.691406 53.695312 -62.546875 48.59375 -62.546875 C 43.5 -62.546875 39.175781 -60.71875 35.625 -57.0625 C 32.070312 -53.414062 30.296875 -48.394531 30.296875 -42 C 30.296875 -35.59375 32.070312 -30.515625 35.625 -26.765625 C 39.175781 -23.015625 43.5 -21.140625 48.59375 -21.140625 C 53.695312 -21.140625 58.019531 -22.988281 61.5625 -26.6875 C 65.113281 -30.394531 66.890625 -35.445312 66.890625 -41.84375 Z M 66.890625 -41.84375"></path></g></g></g><g fill-opacity="1" fill="#ffffff"><g transform="translate(604.010029, 427.124999)"><g><path d="M 94.796875 -83.6875 L 42.296875 39.75 L 14.703125 39.75 L 33.890625 -2.84375 L -0.15625 -83.6875 L 28.5 -83.6875 L 47.84375 -31.34375 L 67.046875 -83.6875 Z M 94.796875 -83.6875"></path></g></g></g></svg>